<svg xmlns="http://www.w3.org/2000/svg" viewBox="0 0 200 280">
  <defs>
    <radialGradient id="glow" cx="50%" cy="75%" r="65%">
      <stop offset="0%" stop-color="#1a1208"/>
      <stop offset="100%" stop-color="#0d0a07"/>
    </radialGradient>
  </defs>
  <rect width="200" height="280" fill="url(#glow)"/>
  <ellipse cx="100" cy="158" rx="80" ry="106" fill="#c9a227" opacity="0.05"/>

  <!-- Left antler (branching) -->
  <path d="M 82,108 Q 70,94 60,74 Q 56,58 62,44
           L 68,60 Q 68,70 72,80
           Q 76,68 80,54 L 86,42
           Q 88,56 84,70
           Q 88,58 94,48 L 98,56
           Q 96,68 90,80 Q 86,92 82,108 Z" fill="#2a1f14"/>

  <!-- Right antler (branching) -->
  <path d="M 118,108 Q 130,94 140,74 Q 144,58 138,44
           L 132,60 Q 132,70 128,80
           Q 124,68 120,54 L 114,42
           Q 112,56 116,70
           Q 112,58 106,48 L 102,56
           Q 104,68 110,80 Q 114,92 118,108 Z" fill="#2a1f14"/>

  <!-- Head -->
  <path d="M 72,168 Q 66,146 68,126
           Q 70,98 100,92 Q 130,98 132,126
           Q 134,146 128,168 Z" fill="#2a1f14"/>

  <!-- Leaf wreath band across forehead -->
  <path d="M 70,112 Q 80,106 100,104 Q 120,106 130,112
           Q 122,120 100,118 Q 78,120 70,112 Z" fill="#2a1f14"/>

  <!-- Robes / body -->
  <path d="M 4,280 L 4,230 Q 2,202 16,186
           L 38,176 L 72,168 L 128,168
           L 162,176 L 184,186 Q 198,202 196,230 L 196,280 Z" fill="#2a1f14"/>

  <!-- Left robe shoulder leaf cluster -->
  <path d="M 28,188 Q 20,178 24,166 Q 28,156 40,156
           Q 50,158 52,168 Q 48,178 38,182 Z" fill="#2a1f14"/>

  <!-- Right robe shoulder leaf cluster -->
  <path d="M 172,188 Q 180,178 176,166 Q 172,156 160,156
           Q 150,158 148,168 Q 152,178 162,182 Z" fill="#2a1f14"/>

  <!-- Gnarled staff (right side) -->
  <path d="M 174,90 Q 180,96 180,108 L 182,280" fill="none" stroke="#2a1f14" stroke-width="8" stroke-linecap="round"/>
  <!-- Staff gnarled top -->
  <path d="M 172,90 Q 165,78 170,62 Q 175,50 184,56
           Q 186,64 180,72 Q 176,80 174,90 Z" fill="#2a1f14"/>

  <!-- Gold: left antler -->
  <path d="M 82,108 Q 70,94 60,74 Q 56,58 62,44
           L 68,60 Q 70,68 72,80
           Q 76,68 80,54 L 86,42
           Q 88,56 84,70 Q 88,58 94,48 L 98,56
           Q 96,68 90,80 Q 86,92 82,108"
        fill="none" stroke="#c9a227" stroke-width="1.5"/>
  <!-- Gold: right antler -->
  <path d="M 118,108 Q 130,94 140,74 Q 144,58 138,44
           L 132,60 Q 130,68 128,80
           Q 124,68 120,54 L 114,42
           Q 112,56 116,70 Q 112,58 106,48 L 102,56
           Q 104,68 110,80 Q 114,92 118,108"
        fill="none" stroke="#c9a227" stroke-width="1.5"/>
  <!-- Gold: wreath across forehead -->
  <path d="M 70,112 Q 80,106 100,104 Q 120,106 130,112"
        fill="none" stroke="#c9a227" stroke-width="1.2"/>
  <!-- Gold: leaf patterns on shoulders -->
  <path d="M 28,188 Q 20,178 24,166 Q 28,156 40,156 Q 50,158 52,168 Q 48,178 38,182 Z"
        fill="none" stroke="#c9a227" stroke-width="1"/>
  <path d="M 172,188 Q 180,178 176,166 Q 172,156 160,156 Q 150,158 148,168 Q 152,178 162,182 Z"
        fill="none" stroke="#c9a227" stroke-width="1"/>
  <!-- Gold: staff gnarled top -->
  <path d="M 172,90 Q 165,78 170,62 Q 175,50 184,56
           Q 186,64 180,72 Q 176,80 174,90 Z"
        fill="none" stroke="#c9a227" stroke-width="1.5"/>
  <!-- Gold: staff line -->
  <line x1="178" y1="105" x2="180" y2="280" stroke="#c9a227" stroke-width="0.8" opacity="0.45"/>
  <!-- Gold: staff knots -->
  <ellipse cx="179" cy="132" rx="4" ry="2" fill="none" stroke="#c9a227" stroke-width="0.8"/>
  <ellipse cx="179" cy="165" rx="4" ry="2" fill="none" stroke="#c9a227" stroke-width="0.8"/>
</svg>
